<svg
  xmlns="http://www.w3.org/2000/svg"
  width="36"
  height="35"
  viewBox="0 0 36 35"
  fill="none"
>
  <path d="M35.25 0H0.25V35H35.25V0Z" fill="#fff" />
  <path
    d="M23.7614 27.3439C24.4664 28.495 25.3836 29.3412 27.0058 29.3412C28.3686 29.3412 29.2391 28.6601 29.2391 27.7189C29.2391 26.5911 28.3447 26.1917 26.8447 25.5356L26.0225 25.1828C23.6492 24.1717 22.0725 22.905 22.0725 20.2272C22.0725 17.7606 23.9519 15.8828 26.8892 15.8828C28.9803 15.8828 30.4836 16.6106 31.5669 18.5161L29.0058 20.1606C28.4419 19.1494 27.8336 18.7511 26.8892 18.7511C25.9258 18.7511 25.3152 19.3622 25.3152 20.1606C25.3152 21.1472 25.9264 21.5467 27.3375 22.1578L28.1597 22.51C30.9541 23.7083 32.5319 24.93 32.5319 27.6767C32.5319 30.6378 30.2058 32.26 27.082 32.26C24.0275 32.26 22.0541 30.8044 21.0886 28.8967L23.7614 27.3439ZM12.143 27.6289C12.6597 28.5456 13.1297 29.3206 14.2597 29.3206C15.3402 29.3206 16.022 28.8978 16.022 27.2539V16.0706H19.3108V27.2983C19.3108 30.7039 17.3141 32.2539 14.3997 32.2539C11.7664 32.2539 10.2414 30.8912 9.46582 29.2497L12.143 27.6289Z"
    fill="white"
    stroke="#000"
  />
</svg>