<svg
  xmlns="http://www.w3.org/2000/svg"
  width="39"
  height="40"
  viewBox="0 0 39 40"
  fill="none"
>
  <path
    d="M18.2227 0.428084C18.1389 0.435708 17.872 0.462393 17.6318 0.481453C12.0927 0.980461 6.90402 3.96917 3.61786 8.56203C1.78815 11.1162 0.617656 14.013 0.175384 17.0814C0.0190634 18.1526 0 18.469 0 19.9214C0 21.3738 0.0190634 21.6902 0.175384 22.7611C1.23531 30.0834 6.4465 36.2358 13.5148 38.5151C14.7807 38.923 16.1147 39.2013 17.6322 39.369C18.2231 39.4338 20.7773 39.4338 21.3682 39.369C23.9872 39.0793 26.2061 38.4312 28.3942 37.3146C28.7298 37.1431 28.7946 37.0974 28.7488 37.0592C28.7183 37.0364 27.2886 35.1189 25.5732 32.8015L22.4548 28.5894L18.5472 22.8068C16.3972 19.6279 14.6281 17.028 14.6129 17.028C14.5976 17.0242 14.5824 19.5932 14.5748 22.7306C14.5633 28.2235 14.5595 28.4446 14.4909 28.5742C14.3918 28.761 14.3155 28.8372 14.1554 28.9211C14.0334 28.9821 13.9266 28.9935 13.3509 28.9935H12.6913L12.5159 28.883C12.4015 28.8105 12.3177 28.7152 12.2605 28.6047L12.1804 28.4331L12.188 20.7906L12.1995 13.1442L12.3177 12.9955C12.3787 12.9155 12.5083 12.8126 12.5998 12.763C12.7561 12.6868 12.8171 12.6791 13.4767 12.6791C14.2545 12.6791 14.3841 12.7096 14.5862 12.9307C14.6434 12.9917 16.7591 16.1783 19.2907 20.0167C21.8223 23.8552 25.2835 29.0964 26.9839 31.6693L30.0718 36.3464L30.2281 36.2434C31.6122 35.3438 33.0758 34.0633 34.2349 32.729C36.7013 29.897 38.2912 26.4436 38.825 22.7615C38.9813 21.6902 39.0004 21.3738 39.0004 19.9218C39.0004 18.4698 38.9813 18.153 38.825 17.0821C37.7651 9.7598 32.5539 3.6074 25.4855 1.32813C24.2388 0.924042 22.9124 0.645756 21.4254 0.478023C21.0594 0.439901 18.5396 0.397968 18.2231 0.428465L18.2227 0.428084ZM26.2058 12.2217C26.3888 12.3132 26.5375 12.4885 26.5908 12.6715C26.6213 12.7706 26.629 14.8898 26.6213 19.666L26.6099 26.5195L25.4013 24.6668L24.1888 22.8141V17.832C24.1888 14.6111 24.2041 12.8004 24.227 12.7127C24.288 12.4992 24.4214 12.3315 24.6044 12.2323C24.7607 12.1523 24.8179 12.1447 25.4165 12.1447C25.9808 12.1447 26.0799 12.1523 26.2058 12.2209V12.2217Z"
    fill="#fff"
    stroke="#000"
  />
</svg>