<svg
  xmlns="http://www.w3.org/2000/svg"
  width="39"
  height="45"
  viewBox="0 0 39 45"
  fill="none"
>
  <path
    d="M19.5077 44.9013C18.9189 44.9013 18.3342 44.7468 17.818 44.4496L12.4396 41.2654C11.6363 40.8162 12.0283 40.6573 12.2932 40.5657C13.3643 40.1907 13.5817 40.106 14.7249 39.4567C14.8451 39.3882 15.0024 39.4124 15.1254 39.485L19.2573 41.9368C19.4065 42.0175 19.6182 42.0175 19.7565 41.9368L35.8671 32.6375C36.0163 32.5528 36.1131 32.3794 36.1131 32.2019V13.6113C36.1131 13.4258 36.0163 13.2604 35.8639 13.1677L19.7597 3.87638C19.6105 3.78766 19.4129 3.78766 19.2637 3.87638L3.16283 13.1677C3.00677 13.2564 2.90757 13.4298 2.90757 13.6072V32.1979C2.90757 32.3753 3.00435 32.5447 3.15759 32.6294L7.56935 35.1781C9.96476 36.3758 11.4286 34.9643 11.4286 33.5448V15.1961C11.4286 14.934 11.6343 14.7324 11.8964 14.7324H13.9369C14.191 14.7324 14.4007 14.934 14.4007 15.1961V33.5529C14.4007 36.7468 12.6586 38.5816 9.63005 38.5816C8.6985 38.5816 7.96455 38.5816 5.91594 37.5735L1.6897 35.1377C0.64523 34.5328 0 33.4037 0 32.1979V13.6072C0 12.3974 0.64523 11.2683 1.6897 10.6714L17.8164 1.36805C18.8367 0.791378 20.1916 0.791378 21.2038 1.36805L37.3104 10.6755C38.3508 11.2764 39.0001 12.4015 39.0001 13.6113V32.2019C39.0001 33.4077 38.3508 34.5328 37.3104 35.1377L21.2038 44.4411C20.6877 44.7396 20.1029 44.8928 19.5061 44.8928"
    fill="#fff"
    stroke="#000"
  />
  <path
    d="M24.484 32.0908C17.4349 32.0908 15.9569 28.855 15.9569 26.141C15.9569 25.8829 16.165 25.6772 16.4235 25.6772H18.5044C18.7342 25.6772 18.9278 25.8446 18.9641 26.0716C19.2786 28.192 20.2142 29.2615 24.4768 29.2615C27.8723 29.2615 29.316 28.4945 29.316 26.6939C29.316 25.6575 28.9046 24.8872 23.6299 24.3711C19.2181 23.9355 16.4921 22.9637 16.4921 19.4351C16.4921 16.1847 19.2343 14.249 23.8275 14.249C28.9853 14.249 31.542 16.0395 31.8646 19.8867C31.8767 20.0198 31.8283 20.1488 31.7396 20.2456C31.6509 20.3384 31.5259 20.3948 31.3968 20.3948H29.3039C29.0861 20.3948 28.8966 20.2416 28.8522 20.0319C28.3481 17.8018 27.1303 17.088 23.8194 17.088C20.1134 17.088 19.6819 18.3785 19.6819 19.3463C19.6819 20.5198 20.19 20.8626 25.1905 21.524C30.1427 22.1813 32.4937 23.1088 32.4937 26.589C32.4937 30.0975 29.566 32.1098 24.4606 32.1098"
    fill="#fff"
    stroke="#000"
  />
</svg>