<svg
  xmlns="http://www.w3.org/2000/svg"
  width="40"
  height="41"
  viewBox="0 0 40 41"
  fill="none"
>
  <path
    d="M29.9 29.8422C30.1664 27.669 30.0865 27.3509 31.7121 27.7087L32.1118 27.7485C33.3643 27.8015 35.0032 27.5497 35.9626 27.0991C38.0279 26.145 39.2537 24.5549 37.2151 24.9657C32.5648 25.9198 32.2451 24.3561 32.2451 24.3561C37.1618 17.1076 39.2137 7.89779 37.4416 5.64504C32.6048 -0.503631 24.2237 2.39844 24.0905 2.47795H24.0505C23.1311 2.29243 22.1051 2.18641 20.9459 2.15991C18.8407 2.12016 17.2417 2.70322 16.0159 3.63082C16.0159 3.63082 1.06584 -2.49135 1.75871 11.3299C1.90528 14.2717 5.99589 33.5791 10.8726 27.7485C12.6581 25.615 14.377 23.8128 14.377 23.8128C15.2297 24.3826 16.2424 24.6609 17.335 24.5681L17.4149 24.5019C17.3883 24.7801 17.4016 25.0584 17.4549 25.3367C16.2024 26.7281 16.5622 26.9799 14.0572 27.4967C11.5122 28.0135 13.0045 28.9411 13.9772 29.1929C15.1631 29.4844 17.8946 29.9085 19.7467 27.3244L19.6668 27.616C20.1598 28.0135 20.1331 30.4385 20.1998 32.1612C20.2664 33.8839 20.3863 35.5138 20.7461 36.4679C21.1058 37.422 21.5189 39.8736 24.8233 39.1712C27.5815 38.5882 29.6868 37.7401 29.8866 29.8687"
    fill="#fff"
    stroke="#000"
  />
  <path
    d="M29.9 29.8422C30.1664 27.669 30.0865 27.3509 31.7121 27.7087L32.1118 27.7485C33.3643 27.8015 35.0032 27.5497 35.9626 27.0991C38.0279 26.145 39.2537 24.5549 37.2151 24.9657C32.5648 25.9198 32.2451 24.3561 32.2451 24.3561C37.1618 17.1076 39.2137 7.89779 37.4416 5.64504C32.6048 -0.503631 24.2237 2.39844 24.0905 2.47795H24.0505C23.1311 2.29243 22.1051 2.18641 20.9459 2.15991C18.8407 2.12016 17.2417 2.70322 16.0159 3.63082C16.0159 3.63082 1.06584 -2.49135 1.75871 11.3299C1.90528 14.2717 5.99589 33.5791 10.8726 27.7485C12.6581 25.615 14.377 23.8128 14.377 23.8128C15.2297 24.3826 16.2424 24.6609 17.335 24.5681L17.4149 24.5019C17.3883 24.7801 17.4016 25.0584 17.4549 25.3367C16.2024 26.7281 16.5622 26.9799 14.0572 27.4967C11.5122 28.0135 13.0045 28.9411 13.9772 29.1929C15.1631 29.4844 17.8946 29.9085 19.7467 27.3244L19.6668 27.616C20.1598 28.0135 20.1331 30.4385 20.1998 32.1612C20.2664 33.8839 20.3863 35.5138 20.7461 36.4679C21.1058 37.422 21.5189 39.8736 24.8233 39.1712C27.5815 38.5882 29.6868 37.7401 29.8866 29.8687"
    fill="#fff"
    stroke="#000"
    strokeWidth="2.6"
  />
  <path
    d="M37.2285 24.9656C32.5783 25.9197 32.2585 24.3561 32.2585 24.3561C37.1752 17.1075 39.2272 7.89777 37.455 5.64502C32.6183 -0.516904 24.2372 2.39842 24.1039 2.47792H24.064C23.1446 2.2924 22.1186 2.18639 20.9594 2.15989C18.8541 2.12014 17.2552 2.7032 16.0293 3.6308C16.016 3.61755 1.07928 -2.50462 1.75883 11.3166C1.9054 14.2585 5.99601 33.5658 10.8728 27.7352C12.6582 25.6017 14.3771 23.7995 14.3771 23.7995C15.2299 24.3693 16.2558 24.6476 17.3351 24.5549L17.4151 24.4886C17.3884 24.7536 17.4151 25.0187 17.455 25.3234C16.2025 26.7148 16.5623 26.9666 14.0573 27.4834C11.5123 28.0002 13.0047 28.9278 13.9774 29.1796C15.1632 29.4711 17.8947 29.8952 19.7468 27.3112L19.6669 27.6027C20.1599 28.0002 20.5063 30.147 20.4397 32.1082C20.3731 34.0694 20.3464 35.4078 20.7328 36.4547C21.1193 37.5015 21.5057 39.8603 24.8101 39.158C27.5683 38.5749 28.994 37.051 29.1939 34.5067C29.3404 32.7045 29.6602 32.9695 29.6736 31.3528L29.9267 30.5843C30.2199 28.1327 29.98 27.3509 31.6722 27.7087L32.072 27.7485C33.3245 27.8015 34.9634 27.5497 35.9227 27.0991C37.988 26.145 39.2139 24.5548 37.1752 24.9656H37.2152H37.2285Z"
    fill="#fff"
    stroke="#000"
  />
  <path
    d="M19.9736 26.3703C19.8403 30.9288 20.0002 35.5138 20.4533 36.6402C20.9063 37.7533 21.8657 39.9265 25.1701 39.2242C27.9283 38.6412 28.9276 37.5015 29.3673 34.9838L30.38 26.9534M16.0295 3.5248C16.0295 3.5248 1.07951 -2.55762 1.77238 11.2637C1.90563 14.2055 6.00956 33.5128 10.8863 27.6822C12.6718 25.562 14.284 23.879 14.284 23.879M24.0908 2.41168C23.5579 2.5707 32.4053 -0.795174 37.4286 5.59203C39.2008 7.84477 37.1621 17.0545 32.2321 24.3031"
    fill="#fff"
    stroke="#000"
    strokeWidth="0.87"
    strokeLinecap="round"
    strokeLinejoin="round"
  />
  <path
    d="M32.2189 24.3031C32.2189 24.3031 32.5387 25.8667 37.2022 24.9126C39.2409 24.4886 38.0017 26.092 35.9497 27.0461C34.2575 27.828 30.4467 28.0267 30.3801 26.9534C30.2202 24.1573 32.3788 25.0054 32.2322 24.3031C32.0856 23.667 31.1263 23.0574 30.4867 21.507C29.9271 20.1554 22.8251 9.83248 32.4587 11.3696C32.8051 11.2901 29.9404 2.25265 20.9331 2.10688C11.9257 1.96112 12.2189 13.1321 12.2189 13.1321"
    fill="#fff"
    stroke="#000"
    strokeWidth="0.87"
    strokeLinecap="round"
    strokeLinejoin="bevel"
  />
  <path
    d="M17.4418 25.257C16.1893 26.6484 16.5491 26.9002 14.0441 27.417C11.4991 27.9338 12.9915 28.8614 13.9642 29.1132C15.15 29.4047 17.8816 29.8288 19.7337 27.2447C20.2933 26.4629 19.7337 25.2173 18.9608 24.8992C18.5877 24.7402 18.0947 24.5547 17.4418 25.2703V25.257Z"
    fill="#fff"
    stroke="#000"
    strokeWidth="0.87"
    strokeLinejoin="round"
  />
  <path
    d="M17.3616 25.2306C17.2283 24.409 17.628 23.4284 18.0544 22.2888C18.694 20.5793 20.1863 18.8566 18.9871 13.4235C18.1077 9.36859 12.1917 12.5754 12.1917 13.132C12.1917 13.6886 12.4582 15.9148 12.0984 18.5253C11.6187 21.9177 14.2703 24.7933 17.3216 24.5018"
    fill="#fff"
    stroke="#000"
    strokeWidth="0.87"
    strokeLinecap="round"
    strokeLinejoin="round"
  />
  <path
    d="M15.9496 13.0393C15.9229 13.2249 16.296 13.7284 16.7757 13.7947C17.2554 13.8609 17.6684 13.4766 17.6951 13.2779C17.7217 13.0791 17.3487 12.8803 16.869 12.8141C16.3893 12.7478 15.9762 12.8406 15.9496 13.0261V13.0393Z"
    fill="#fff"
    stroke="#000"
    strokeWidth="0.29"
  />
  <path
    d="M30.7127 12.6551C30.7393 12.8406 30.3662 13.3441 29.8865 13.4104C29.4069 13.4767 28.9805 13.0924 28.9672 12.8936C28.9538 12.6948 29.3136 12.4961 29.7933 12.4298C30.273 12.3635 30.6993 12.4563 30.7127 12.6418V12.6551Z"
    fill="#fff"
    stroke="#000"
    strokeWidth="0.14"
  />
  <path
    d="M32.4446 11.3564C32.5245 12.8274 32.1248 13.8345 32.0715 15.3981C31.9915 17.6774 33.1641 20.2879 31.4053 22.8985"
    fill="#fff"
    stroke="#000"
    strokeWidth="0.87"
    strokeLinecap="round"
    strokeLinejoin="round"
  />
</svg>