<svg
  xmlns="http://www.w3.org/2000/svg"
  width="35"
  height="42"
  viewBox="0 0 35 42"
  fill="none"
>
  <path
    fillRule="evenodd"
    clipRule="evenodd"
    d="M31.0947 32.9343L12.6862 38.3787C12.1239 38.5451 11.5846 38.0589 11.7029 37.4916L18.2795 5.9965C18.4024 5.40787 19.2168 5.31422 19.4735 5.85979L31.6499 31.7169C31.8794 32.2048 31.6177 32.78 31.0947 32.9343ZM34.2515 31.65L20.1528 1.71053V1.70969C19.7962 0.958855 19.0558 0.464288 18.2251 0.422064C17.3673 0.371897 16.5984 0.785778 16.1649 1.49021L0.874311 26.2562C0.400229 27.02 0.410681 27.989 0.901067 28.7424L8.37559 40.3206C8.82125 41.0117 9.59299 41.4118 10.3952 41.4118C10.6227 41.4118 10.8514 41.3796 11.0763 41.3131L32.7724 34.8963C33.4334 34.7027 33.9777 34.232 34.2649 33.6061C34.5483 32.9836 34.5437 32.2679 34.2519 31.6492L34.2515 31.65Z"
    fill="#fff"
    stroke="#000"
  />
</svg>