<svg
  xmlns="http://www.w3.org/2000/svg"
  width="40"
  height="36"
  viewBox="0 0 40 36"
  fill="none"
>
  <path
    d="M39.651 18.42C39.651 15.8165 36.3905 13.3491 31.3917 11.819C32.5453 6.72398 32.0326 2.67042 29.7735 1.37264C29.2528 1.06822 28.6439 0.924027 27.979 0.924027V2.71048C28.3475 2.71048 28.6439 2.78258 28.8923 2.91876C29.9818 3.54362 30.4544 5.92288 30.0859 8.98308C29.9978 9.73611 29.8536 10.5292 29.6773 11.3383C28.1072 10.9538 26.3928 10.6574 24.5904 10.4651C23.5089 8.98308 22.3873 7.63723 21.2578 6.45962C23.8694 4.03229 26.3207 2.70247 27.987 2.70247V0.916016C25.784 0.916016 22.9 2.48617 19.984 5.2099C17.0681 2.50219 14.1841 0.94806 11.9811 0.94806V2.73451C13.6393 2.73451 16.0987 4.05632 18.7103 6.46763C17.5888 7.64524 16.4672 8.98308 15.4018 10.4651C13.5913 10.6574 11.8769 10.9538 10.3068 11.3463C10.1225 10.5452 9.98634 9.76816 9.89021 9.02313C9.51369 5.96294 9.97833 3.58367 11.0598 2.95081C11.3001 2.80661 11.6126 2.74252 11.9811 2.74252V0.956071C11.3082 0.956071 10.6993 1.10027 10.1706 1.40469C7.9195 2.70247 7.41481 6.74801 8.5764 11.827C3.59357 13.3651 0.349121 15.8245 0.349121 18.42C0.349121 21.0236 3.60959 23.491 8.60845 25.0211C7.45487 30.1161 7.96757 34.1696 10.2267 35.4674C10.7474 35.7718 11.3562 35.916 12.0291 35.916C14.2322 35.916 17.1161 34.3459 20.0321 31.6221C22.9481 34.3298 25.8321 35.884 28.0351 35.884C28.708 35.884 29.3168 35.7398 29.8456 35.4354C32.0967 34.1376 32.6014 30.092 31.4398 25.0131C36.4066 23.483 39.651 21.0156 39.651 18.42ZM29.2207 13.0767C28.9243 14.1101 28.5558 15.1756 28.1392 16.241C27.8108 15.6002 27.4663 14.9593 27.0898 14.3184C26.7213 13.6775 26.3288 13.0527 25.9362 12.4438C27.0738 12.6121 28.1713 12.8203 29.2207 13.0767ZM25.5517 21.6084C24.9268 22.6899 24.2859 23.7153 23.621 24.6686C22.4274 24.7727 21.2177 24.8288 20.0001 24.8288C18.7904 24.8288 17.5808 24.7727 16.3951 24.6766C15.7302 23.7233 15.0813 22.7059 14.4565 21.6324C13.8476 20.583 13.2949 19.5175 12.7902 18.4441C13.2869 17.3706 13.8476 16.2971 14.4485 15.2477C15.0733 14.1662 15.7142 13.1408 16.3791 12.1875C17.5727 12.0833 18.7824 12.0273 20.0001 12.0273C21.2097 12.0273 22.4194 12.0833 23.605 12.1795C24.2699 13.1328 24.9188 14.1502 25.5437 15.2236C26.1525 16.2731 26.7053 17.3385 27.21 18.412C26.7053 19.4855 26.1525 20.559 25.5517 21.6084ZM28.1392 20.567C28.5718 21.6404 28.9403 22.7139 29.2448 23.7553C28.1953 24.0117 27.0898 24.228 25.9442 24.3962C26.3368 23.7794 26.7293 23.1465 27.0978 22.4976C27.4663 21.8567 27.8108 21.2078 28.1392 20.567ZM20.0161 29.1147C19.2711 28.3456 18.526 27.4885 17.789 26.5512C18.51 26.5832 19.247 26.6073 19.9921 26.6073C20.7451 26.6073 21.4901 26.5912 22.2191 26.5512C21.4981 27.4885 20.7531 28.3456 20.0161 29.1147ZM14.0559 24.3962C12.9184 24.228 11.8209 24.0197 10.7714 23.7633C11.0678 22.7299 11.4363 21.6645 11.8529 20.599C12.1813 21.2399 12.5258 21.8808 12.9023 22.5216C13.2789 23.1625 13.6634 23.7874 14.0559 24.3962ZM19.976 7.72535C20.7211 8.49441 21.4661 9.35158 22.2031 10.2889C21.4821 10.2568 20.7451 10.2328 20.0001 10.2328C19.247 10.2328 18.502 10.2488 17.773 10.2889C18.494 9.35158 19.239 8.49441 19.976 7.72535ZM14.0479 12.4438C13.6554 13.0607 13.2628 13.6935 12.8943 14.3424C12.5258 14.9833 12.1813 15.6242 11.8529 16.2651C11.4203 15.1916 11.0518 14.1181 10.7474 13.0767C11.7968 12.8284 12.9023 12.6121 14.0479 12.4438ZM6.79797 22.4736C3.96208 21.2639 2.12756 19.6777 2.12756 18.42C2.12756 17.1623 3.96208 15.5681 6.79797 14.3665C7.48691 14.0701 8.23994 13.8057 9.01701 13.5574C9.47363 15.1275 10.0745 16.7617 10.8195 18.436C10.0825 20.1023 9.48966 21.7286 9.04104 23.2907C8.24795 23.0424 7.49492 22.77 6.79797 22.4736ZM11.1079 33.9213C10.0184 33.2964 9.54573 30.9172 9.91424 27.857C10.0024 27.1039 10.1466 26.3108 10.3228 25.5017C11.893 25.8863 13.6073 26.1827 15.4098 26.3749C16.4913 27.857 17.6128 29.2028 18.7423 30.3804C16.1308 32.8078 13.6794 34.1376 12.0131 34.1376C11.6526 34.1296 11.3482 34.0575 11.1079 33.9213ZM30.1099 27.8169C30.4865 30.8771 30.0218 33.2564 28.9403 33.8892C28.7 34.0334 28.3876 34.0975 28.0191 34.0975C26.3608 34.0975 23.9014 32.7757 21.2898 30.3644C22.4114 29.1868 23.5329 27.849 24.5984 26.3669C26.4089 26.1747 28.1232 25.8783 29.6934 25.4857C29.8776 26.2948 30.0218 27.0719 30.1099 27.8169ZM33.1942 22.4736C32.5052 22.77 31.7522 23.0343 30.9751 23.2827C30.5185 21.7125 29.9177 20.0783 29.1726 18.404C29.9097 16.7377 30.5025 15.1115 30.9511 13.5493C31.7442 13.7977 32.4972 14.0701 33.2022 14.3665C36.0381 15.5761 37.8726 17.1623 37.8726 18.42C37.8646 19.6777 36.0301 21.2719 33.1942 22.4736Z"
    fill="#fff"
    stroke="#000"
  />
  <path
    d="M19.9916 22.0808C22.0135 22.0808 23.6526 20.4417 23.6526 18.4198C23.6526 16.3979 22.0135 14.7588 19.9916 14.7588C17.9697 14.7588 16.3306 16.3979 16.3306 18.4198C16.3306 20.4417 17.9697 22.0808 19.9916 22.0808Z"
    fill="#fff"
    stroke="#000"
  />
</svg>