<svg
  xmlns="http://www.w3.org/2000/svg"
  width="51"
  height="43"
  viewBox="0 0 51 43"
  fill="none"
>
  <path
    d="M49.0018 33.1193C46.2801 34.5202 32.181 40.2445 29.1794 41.7896C26.1777 43.335 24.5103 43.3201 22.1389 42.2008C19.7678 41.0814 4.76376 35.097 2.06102 33.8213C0.710269 33.184 0 32.6456 0 32.1373V27.0471C0 27.0471 19.5333 22.8482 22.6868 21.731C25.84 20.6138 26.9341 20.5735 29.6177 21.544C32.3016 22.515 48.3479 25.3738 51 26.333L50.9988 31.3513C50.9992 31.8546 50.3873 32.4065 49.0018 33.1195"
    fill="#fff"
    stroke="#000"
  />
  <path
    d="M49.0008 28.0592C46.2793 29.4595 32.1807 35.1839 29.179 36.7289C26.1776 38.2745 24.5101 38.2593 22.139 37.1401C19.7676 36.0215 4.76421 30.0361 2.06168 28.7611C-0.640848 27.4854 -0.697572 26.6075 1.95721 25.581C4.612 24.554 19.5332 18.7736 22.687 17.6563C25.8403 16.5395 26.9342 16.4988 29.6177 17.4698C32.3015 18.4403 46.3161 23.9488 48.9678 24.9076C51.6205 25.8679 51.7224 26.6585 49.0008 28.059"
    fill="#fff"
    stroke="#000"
  />
  <path
    d="M49.0018 24.8828C46.2801 26.2839 32.181 32.008 29.1794 33.5538C26.1777 35.0985 24.5103 35.0836 22.1389 33.9644C19.7676 32.8456 4.76376 26.8606 2.06102 25.5848C0.710269 24.9475 0 24.41 0 23.9014V18.8106C0 18.8106 19.5333 14.6118 22.6868 13.4948C25.84 12.3775 26.9341 12.337 29.6177 13.3078C32.3018 14.2785 48.3481 17.1367 51 18.0962L50.9988 23.1151C50.9992 23.6182 50.3873 24.17 49.0018 24.883"
    fill="#fff"
    stroke="#000"
  />
  <path
    d="M49.0008 19.8228C46.2793 21.2235 32.1807 26.9475 29.179 28.4931C26.1776 30.038 24.5101 30.0229 22.139 28.9037C19.7676 27.7851 4.76421 21.7999 2.06168 20.5247C-0.640848 19.2493 -0.697572 18.3713 1.95721 17.3443C4.612 16.318 19.5334 10.5371 22.687 9.42011C25.8403 8.30311 26.9342 8.26261 29.6177 9.23334C32.3015 10.2039 46.3161 15.712 48.9678 16.6712C51.6205 17.6313 51.7224 18.4221 49.0008 19.8226"
    fill="#fff"
    stroke="#000"
  />
  <path
    d="M49.0018 16.3414C46.2801 17.7421 32.181 23.4665 29.1794 25.0123C26.1777 26.5573 24.5103 26.5421 22.1389 25.4229C19.7676 24.3041 4.76376 18.3189 2.06102 17.0437C0.710473 16.4056 0 15.8679 0 15.36V10.269C0 10.269 19.5333 6.0703 22.6868 4.95349C25.84 3.83608 26.9341 3.79598 29.6177 4.76652C32.3018 5.73725 48.3481 8.59545 51 9.5549L50.9988 14.5736C50.9992 15.0763 50.3873 15.6281 49.0018 16.3414Z"
    fill="#fff"
    stroke="#000"
  />
  <path
    d="M49.0007 11.281C46.2792 12.6817 32.1806 18.4061 29.1789 19.9511C26.1775 21.496 24.51 21.4809 22.1389 20.3623C19.7677 19.2429 4.76411 13.2581 2.06179 11.9827C-0.64095 10.7076 -0.69747 9.82931 1.95711 8.80256C4.6121 7.77602 19.5333 1.99574 22.6869 0.878329C25.8402 -0.238882 26.9341 -0.278976 29.6176 0.691758C32.3014 1.66249 46.316 7.17057 48.9677 8.12982C51.6204 9.08907 51.7223 9.88008 49.0007 11.2806"
    fill="#fff"
    stroke="#000"
  />
  <path
    d="M31.7324 6.32913L27.3475 6.77863L26.3659 9.11097L24.7805 6.50845L19.7174 6.05914L23.4954 4.71386L22.3618 2.64868L25.8988 4.01472L29.2333 2.9368L28.332 5.07209L31.7322 6.32933M26.1041 17.6441L17.9208 14.2927L29.6469 12.5154L26.1041 17.6443M14.7586 7.62586C18.2199 7.62586 21.0259 8.69995 21.0259 10.0247C21.0259 11.3494 18.2199 12.4237 14.7586 12.4237C11.2972 12.4237 8.49121 11.3496 8.49121 10.0247C8.49121 8.69975 11.2972 7.62586 14.7586 7.62586Z"
    fill="#fff"
    stroke="#000"
  />
  <path
    d="M36.9141 6.96651L43.8541 9.67461L36.9202 12.3801L36.9143 6.96631"
    fill="#fff"
    stroke="#000"
  />
  <path
    d="M29.2365 9.96559L36.9144 6.96655L36.9203 12.3801L36.1674 12.6709L29.2363 9.96559"
    fill="#fff"
    stroke="#000"
  />
</svg>