<svg
  xmlns="http://www.w3.org/2000/svg"
  width="36"
  height="35"
  viewBox="0 0 36 35"
  fill="none"
>
  <path
    d="M31.832 0H3.66797C1.78028 0 0.25 1.53028 0.25 3.41797V31.582C0.25 33.4697 1.78028 35 3.66797 35H31.832C33.7197 35 35.25 33.4697 35.25 31.582V3.41797C35.25 1.53028 33.7197 0 31.832 0Z"
    fill="#fff"
    stroke="#000"
  />
  <path
    d="M31.832 0H3.66797C1.78028 0 0.25 1.53028 0.25 3.41797V31.582C0.25 33.4697 1.78028 35 3.66797 35H31.832C33.7197 35 35.25 33.4697 35.25 31.582V3.41797C35.25 1.53028 33.7197 0 31.832 0Z"
    fill="#fff"
    stroke="#000"
  />
  <path
    fillRule="evenodd"
    clipRule="evenodd"
    d="M21.9158 27.8512V31.2734C22.4721 31.5586 23.13 31.7724 23.8897 31.915C24.6493 32.0576 25.4498 32.1289 26.2915 32.1289C27.1117 32.1289 27.8909 32.0505 28.6291 31.8936C29.3673 31.7368 30.0146 31.4783 30.5709 31.1183C31.1272 30.7583 31.5677 30.2877 31.8921 29.7067C32.2166 29.1256 32.3789 28.4073 32.3789 27.5518C32.3789 26.9315 32.2862 26.388 32.1008 25.921C31.9153 25.454 31.6479 25.0387 31.2984 24.6751C30.9489 24.3115 30.5299 23.9853 30.0413 23.6965C29.5527 23.4078 29.0018 23.1351 28.3884 22.8785C27.9391 22.6931 27.5361 22.5131 27.1794 22.3385C26.8228 22.1637 26.5197 21.9855 26.2701 21.8037C26.0204 21.6219 25.8278 21.4294 25.6924 21.2262C25.5568 21.023 25.4891 20.7931 25.4891 20.5364C25.4891 20.3012 25.5497 20.0891 25.6709 19.9002C25.7923 19.7112 25.9634 19.549 26.1845 19.4136C26.4056 19.2781 26.6766 19.1729 26.9975 19.0981C27.3185 19.0233 27.6751 18.9859 28.0675 18.9859C28.3527 18.9859 28.654 19.0072 28.9714 19.05C29.2888 19.0928 29.608 19.1587 29.929 19.2478C30.2499 19.3369 30.5619 19.4493 30.8651 19.5847C31.1682 19.7202 31.4482 19.877 31.7049 20.0553V16.8577C31.1843 16.6581 30.6155 16.5101 29.9986 16.4139C29.3816 16.3176 28.6737 16.2695 27.8749 16.2695C27.0617 16.2695 26.2915 16.3569 25.564 16.5315C24.8365 16.7062 24.1964 16.9789 23.6435 17.3496C23.0908 17.7204 22.654 18.1926 22.3331 18.7666C22.0121 19.3405 21.8516 20.0267 21.8516 20.8252C21.8516 21.8447 22.1458 22.7145 22.7342 23.4346C23.3226 24.1546 24.2159 24.7642 25.4142 25.2633C25.8849 25.4558 26.3236 25.6447 26.7301 25.8301C27.1367 26.0154 27.4879 26.2079 27.7839 26.4076C28.0799 26.6072 28.3134 26.8246 28.4847 27.0599C28.6559 27.2952 28.7415 27.5625 28.7415 27.8619C28.7415 28.083 28.6879 28.2879 28.581 28.4768C28.474 28.6658 28.3117 28.8298 28.0941 28.9688C27.8766 29.1078 27.6056 29.2165 27.2811 29.2949C26.9565 29.3734 26.5768 29.4126 26.1417 29.4126C25.3999 29.4126 24.6653 29.2825 23.9377 29.0223C23.2103 28.7621 22.5363 28.3718 21.9158 27.8512ZM16.1627 19.4197H20.5528V16.6113H8.31641V19.4197H12.685V31.9238H16.1627V19.4197Z"
    fill="#fff"
    stroke="#000"
  />
</svg>